<svg xmlns="http://www.w3.org/2000/svg" width="545.5252" height="383.2733" viewBox="0 0 545.5252 383.2733"><defs><style>.b354abc5-9255-4c6f-9235-7588b9992157{fill:#002f87;}</style></defs><g id="aaf94c74-a932-428b-8788-7569fb2db19b" data-name="Livello 2"><g id="b6ad4d9b-3588-412a-a096-27341ae3fb28" data-name="Livello 1"><path class="b354abc5-9255-4c6f-9235-7588b9992157" d="M541.1614,160.8111c-1.1741-1.4424-2.6841-3.29-4.2854-3.5776-4.6145-.8294-9.4705-1.79-14.0183-1.16-6.4073.8883-12.6226,3.16-19.2,4.9142-6.6645-16.2226-12.9591-32.1113-19.7016-47.8076-7.6148-17.7263-21.2738-27.8048-40.61-27.9111q-95.291-.5239-190.586.0011c-18.9009.1023-32.3774,9.9205-40.0742,27.133-4.8648,10.8792-9.1168,22.0321-13.6651,33.0534-2.0914,5.0677-4.2345,10.1141-6.4691,15.4443-5.5841-1.5152-10.7418-2.902-15.8925-4.3147-13.3977-3.6747-19.053-1.2053-25.0674,10.9654V188.328c3.9992,10.2727,11.2362,16.2513,22.8871,16.4394-.8233,2.1612-1.4233,3.75-2.0329,5.3346-6.0635,15.7621-10.3087,31.9987-10.4871,48.933-.3536,33.5775-.2767,67.16-.2654,100.7405.0052,15.1875,8.1847,23.259,23.4726,23.4328,7.0964.0807,14.1946.0493,21.2916.008,16.1492-.0941,24.1479-8.1619,24.1775-24.35q.0194-10.5242.0022-21.0572H465.4832c0,7.7253-.0672,14.9819.0141,22.2369.1619,14.439,8.4634,22.8586,22.9038,23.1463,7.2675.1449,14.54.0566,21.81.0245,16.43-.0725,24.5408-8.1923,24.5509-24.6172.0188-30.9856.3117-61.9759-.1656-92.9542a175.3434,175.3434,0,0,0-3.7271-31.333c-1.9694-9.8884-5.4318-19.4795-7.9926-28.3505,4.92-2.1949,10.4691-3.5923,14.6736-6.769C546.4513,192.4686,548.2562,169.5281,541.1614,160.8111ZM277.22,287.6156c-.0989,6.7615-3.1635,9.8469-9.8829,9.8737q-28.2438.1124-56.4883-.0078c-6.4762-.0312-9.4022-3.0685-9.4807-9.6292q-.1551-12.9542.0067-25.9113c.088-6.2262,3.0449-9.2429,9.239-9.33,9.6719-.1357,19.3471-.0359,29.021-.0359,9.1557-.009,18.3119-.0753,27.4667.0124,7.0409.0673,10.0446,3.0779,10.1262,10.1529C277.3234,271.0313,277.3413,279.3255,277.22,287.6156Zm70.6611-78.92q-62.0409.004-124.0819.0013c-1.73,0-3.4652.0551-5.1905-.0444-10.5944-.611-14.5776-6.61-10.5559-16.5333,9.9921-24.6557,20.0106-49.3039,30.3937-73.7961,4.5176-10.6563,13.1125-16.4135,24.8092-16.4345q84.884-.1521,169.7682.0072c11.9073.0246,20.4458,6.0016,25.0208,16.8944,10.0339,23.8907,19.7778,47.9033,29.5984,71.8834,4.862,11.8724.8268,17.9819-12.0464,18Q411.739,208.7618,347.8811,208.6956Zm146.51,79.4424c-.0931,6.1564-3.1836,9.26-9.3266,9.34-9.6932.1258-19.3893.0335-29.0843.0335-9.1756.0041-18.3517.0732-27.5264-.0187-6.8025-.068-9.8132-3.062-9.894-9.8487q-.1513-12.7228.0051-25.4485c.0891-6.4851,3.1124-9.5609,9.604-9.5922q28.3052-.1367,56.6111-.0009c6.5084.0308,9.5356,3.0989,9.6181,9.5677C494.5088,270.8251,494.522,279.4838,494.3914,288.138Z"/><path class="b354abc5-9255-4c6f-9235-7588b9992157" d="M60.575,59.2863c-.0263-13.3949-.0256-13.4084,13.4393-12.6457,1.8933.1072,3.7763.41,5.6618.6415,9.9157,1.2144,14.8826,9.8028,10.3014,18.7347A11.2633,11.2633,0,0,1,82.9519,71.21c-5.885,1.1019-11.9861,1.0787-18.004,1.43-3.1247.1823-4.3-1.7409-4.3591-4.5427C60.5271,65.1614,60.575,62.2233,60.575,59.2863Z"/><path class="b354abc5-9255-4c6f-9235-7588b9992157" d="M151.545,28.24C151.5119,11.6137,141.3435.5182,124.6642.3064q-48.8017-.62-97.616.003C11.0235.51.5319,10.8672.324,26.7827q-.6417,49.0605.01,98.1345c.2247,16.3636,11.39,26.41,27.7248,26.5543,4.6728.0412,9.3465.0081,14.02.0084,7.8983,0,15.7966,0,24.1578,0,0,2.7075,0,4.7469,0,6.7862q0,105.1486.004,210.2974c0,1.9029-.0591,3.8168.1137,5.7069.4755,5.2021,4.09,8.7576,8.9948,8.9887,5.1616.2433,8.92-2.65,9.8715-7.9108a40.8155,40.8155,0,0,0,.4809-7.2227q.0356-104.63.0192-209.2589v-6.74a9.9857,9.9857,0,0,1,1.79-.5611c11.9418-.04,23.8837-.0289,35.8252-.0941,17.35-.0948,28.18-10.8648,28.2121-28.2084Q151.6355,75.7513,151.545,28.24ZM111.4763,60.6242c-.6727,17.1115-8.9183,26.5207-25.8953,28.7415a133.6807,133.6807,0,0,1-19.142.6411c-4.2538-.0594-5.9932,1.5929-5.9163,5.7731.1174,6.3931.0852,12.7907.0044,19.185-.0734,5.8019-1.3375,7.0325-6.9894,7.2014-13.148.3928-13.2432.3-13.2432-12.85V75.6117c.0018-12.9633-.0283-25.9268.0154-38.89.02-5.9015,1.08-7.07,6.9985-6.9673,13.2862.2315,26.6631-.2052,39.83,1.2253C103.7753,32.7871,112.1363,43.8314,111.4763,60.6242Z"/></g></g></svg>