<svg xmlns="http://www.w3.org/2000/svg" width="288.1041" height="384" viewBox="0 0 288.1041 384"><defs><style>.aacf6b81-dda1-454e-a144-2b5064b2688a{fill:#002f87;}</style></defs><g id="adc74889-099a-4921-8aa5-219ecfb6cfcf" data-name="Livello 2"><g id="a3cd7dfe-9cdf-4ad2-86e8-edde77ccd84e" data-name="Livello 1"><path class="aacf6b81-dda1-454e-a144-2b5064b2688a" d="M134.4007,0h19.5c2.205.2939,4.4106.5834,6.615.8824,45.5128,6.1738,81.114,28.285,105.7,67.0994C284.3426,96.6,291.22,128.077,286.8131,161.8192c-2.9585,22.6517-10.8158,43.7625-20.6823,64.1789-15.23,31.5146-34.7791,60.2831-56.4076,87.6873A678.8572,678.8572,0,0,1,146.4007,384h-4.5c-1.3417-1.2627-2.7136-2.4948-4.02-3.7925a707.9409,707.9409,0,0,1-75.55-88.0492c-19.4816-26.9964-36.73-55.2826-49.0228-86.3691C1.1987,175.1681-4.4116,143.73,4.0562,111.2814,18.5905,55.5857,53.9509,19.8754,109.4348,4.4437,117.5416,2.189,126.0683,1.4437,134.4007,0Zm9.8815,209.9955c35.98.0475,65.7356-29.5322,65.8619-65.4721.1287-36.5943-29.3562-66.5061-65.5619-66.5113a66.0186,66.0186,0,0,0-66.4173,66.0242C78.0887,180.3513,107.7557,209.9474,144.2822,209.9955Z"/></g></g></svg>